<?xml version="1.0" standalone="no"?>
<!DOCTYPE svg PUBLIC "-//W3C//DTD SVG 20010904//EN"
 "http://www.w3.org/TR/2001/REC-SVG-20010904/DTD/svg10.dtd">
<svg version="1.0" xmlns="http://www.w3.org/2000/svg"
 width="512.000000pt" height="512.000000pt" viewBox="0 0 512.000000 512.000000"
 preserveAspectRatio="xMidYMid meet">
<metadata>
Created by potrace 1.16, written by Peter Selinger 2001-2019
</metadata>
<!-- Изменен fill на #ffffff -->
<g transform="translate(0.000000,512.000000) scale(0.100000,-0.100000)"
fill="#ffffff" stroke="none">
<path d="M2390 5085 c-306 -62 -554 -294 -642 -601 -30 -106 -32 -323 -4 -429
40 -153 122 -291 237 -401 110 -104 200 -156 346 -201 78 -23 104 -26 233 -26
129 0 155 3 233 26 146 45 236 97 346 201 115 110 197 248 237 401 28 105 26
323 -4 428 -42 147 -116 272 -224 378 -116 116 -265 194 -426 225 -90 17 -244
17 -332 -1z m360 -224 c91 -29 182 -85 254 -157 72 -73 118 -146 154 -246 23
-64 26 -88 26 -198 0 -115 -3 -131 -31 -206 -60 -158 -171 -283 -318 -355
-185 -91 -366 -90 -555 2 -67 33 -102 59 -165 123 -119 120 -171 236 -181 401
-19 294 166 553 456 642 64 20 92 23 185 19 75 -2 130 -10 175 -25z"/>
<path d="M2784 4567 c-12 -7 -83 -86 -159 -177 -75 -91 -143 -171 -150 -179
-11 -12 -24 -5 -81 43 -60 49 -74 56 -112 56 -35 0 -49 -6 -73 -29 -33 -34
-40 -91 -14 -129 19 -26 201 -184 232 -200 33 -18 77 -14 107 9 30 24 377 433
394 466 37 68 -11 153 -85 153 -21 -1 -48 -6 -59 -13z"/>
<path d="M921 3653 c-16 -16 -230 -384 -475 -820 -491 -872 -478 -843 -419
-901 16 -15 143 -91 284 -170 325 -181 334 -182 409 -47 l37 66 64 -52 c35
-28 73 -57 83 -65 18 -13 18 -14 -3 -64 -83 -193 17 -408 215 -466 30 -8 52
-19 49 -23 -9 -15 16 -133 36 -173 11 -21 36 -57 55 -78 38 -42 142 -100 179
-100 21 0 23 -6 27 -62 5 -78 41 -159 94 -212 38 -38 144 -96 175 -96 12 0 18
-14 23 -62 12 -123 85 -226 195 -279 68 -33 188 -38 261 -10 62 23 245 163
300 229 l34 40 71 -58 c86 -70 139 -98 212 -111 155 -29 332 73 374 215 l12
41 106 0 c95 0 111 3 156 27 62 32 130 104 157 166 11 25 23 74 26 109 4 57 7
63 27 63 37 0 141 58 179 100 54 60 78 116 84 192 l5 67 51 15 c100 29 174 94
219 194 31 68 30 197 -2 270 -23 52 -23 53 -5 66 10 8 48 37 83 65 l64 51 34
-62 c76 -138 88 -137 418 47 143 80 270 157 283 171 51 58 61 37 -424 897
-246 436 -460 804 -475 820 -55 51 -76 44 -379 -125 -244 -137 -275 -157 -287
-187 -18 -43 -12 -74 27 -141 17 -29 30 -54 28 -55 -8 -8 -225 -66 -247 -67
-14 0 -102 27 -196 61 -205 74 -273 86 -383 71 -131 -18 -246 -57 -445 -151
l-189 -89 -296 86 c-163 48 -298 87 -299 88 -1 1 14 34 34 73 35 66 36 72 25
110 -7 23 -22 47 -35 55 -12 9 -136 79 -275 157 -283 158 -306 165 -361 114z
m274 -310 c146 -82 153 -87 140 -107 -7 -12 -183 -322 -390 -691 -208 -368
-379 -672 -381 -674 -4 -4 -292 155 -308 169 -4 5 162 309 369 677 406 718
403 713 411 713 3 0 75 -39 159 -87z m3287 -604 c213 -376 386 -688 384 -693
-2 -9 -293 -176 -305 -176 -5 0 -266 459 -697 1225 l-91 162 151 86 c83 47
155 85 161 83 5 -1 184 -310 397 -687z m-1392 195 c231 -81 253 -83 459 -24
119 34 146 39 156 28 16 -17 545 -957 545 -967 0 -8 -157 -136 -198 -162 -17
-11 -40 5 -203 136 -101 82 -203 165 -227 184 l-42 36 63 11 c35 7 90 23 123
36 47 18 62 30 77 59 21 44 14 89 -21 124 -31 31 -74 32 -162 3 -51 -17 -91
-21 -185 -22 -111 -1 -124 1 -175 26 -30 15 -86 50 -125 78 -87 62 -207 110
-294 117 -89 7 -165 -12 -364 -91 -89 -36 -191 -73 -227 -82 -88 -22 -219 -16
-276 14 -45 23 -94 75 -94 99 0 34 36 87 84 123 54 41 532 274 624 305 80 26
192 45 237 39 21 -3 122 -34 225 -70z m-1440 -45 l215 -61 -49 -50 c-70 -73
-100 -144 -100 -238 0 -58 6 -86 24 -123 47 -98 163 -182 288 -208 74 -15 269
-6 342 16 30 9 136 49 235 88 158 62 188 71 245 71 111 0 170 -39 655 -434
160 -130 337 -274 395 -321 149 -120 169 -173 98 -254 -31 -36 -79 -52 -121
-41 -13 3 -94 62 -181 131 -142 113 -161 125 -197 125 -51 0 -75 -13 -94 -50
-17 -34 -19 -73 -5 -101 6 -10 78 -73 160 -139 81 -66 156 -130 164 -142 22
-30 20 -96 -3 -134 -25 -40 -83 -68 -126 -60 -22 4 -90 52 -202 141 -161 129
-170 135 -214 135 -54 0 -93 -30 -102 -80 -12 -58 7 -82 175 -215 88 -71 169
-143 179 -159 50 -82 -11 -186 -108 -186 -52 0 -56 2 -243 153 -74 60 -146
113 -160 119 -60 23 -140 -30 -140 -92 0 -49 20 -77 104 -143 107 -85 117 -98
123 -150 7 -61 -17 -104 -72 -128 -65 -29 -93 -18 -229 91 -111 88 -122 100
-135 144 -17 59 -63 121 -119 161 -25 18 -40 36 -37 45 2 8 14 42 26 75 27 76
22 177 -12 250 -23 49 -96 133 -133 152 -19 10 -19 12 5 64 20 45 24 70 23
144 0 78 -3 97 -27 142 -39 75 -78 115 -149 153 -56 30 -72 34 -143 34 -44 1
-94 -3 -110 -7 -29 -7 -32 -5 -44 30 -48 134 -170 216 -321 217 -103 0 -158
-27 -316 -155 -112 -90 -129 -101 -146 -90 -42 26 -198 154 -198 162 0 8 498
895 536 957 8 12 18 22 22 22 4 0 104 -27 222 -61z m-70 -1055 c55 -22 84 -71
77 -130 -2 -24 -11 -52 -18 -61 -27 -33 -374 -304 -396 -309 -65 -17 -146 35
-159 101 -7 41 0 67 32 104 38 45 350 292 381 301 39 12 38 12 83 -6z m475
-244 c35 -22 65 -73 65 -112 0 -51 -40 -91 -299 -297 -286 -228 -302 -237
-368 -205 -74 37 -98 138 -46 196 28 32 513 419 537 428 36 15 77 11 111 -10z
m132 -500 c63 -38 82 -131 36 -182 -21 -25 -297 -247 -349 -283 -56 -38 -114
-35 -162 9 -34 32 -37 39 -37 89 0 33 6 61 15 72 17 21 345 286 375 303 31 18
86 14 122 -8z m131 -500 c34 -21 62 -72 62 -112 0 -38 -34 -82 -112 -145 -99
-81 -136 -103 -178 -103 -87 0 -150 93 -117 172 14 33 110 120 201 182 47 32
98 34 144 6z"/>
</g>
</svg>
